<?xml version="1.0" encoding="UTF-8" standalone="no"?>
<!DOCTYPE svg PUBLIC "-//W3C//DTD SVG 1.1//EN"
 "http://www.w3.org/Graphics/SVG/1.1/DTD/svg11.dtd">
<!-- Generated by graphviz version 14.1.4 (20260321.0153)
 -->
<!-- Title: PRISMA Pages: 1 -->
<svg width="4800pt" height="1037pt"
 viewBox="0.00 0.00 4800.00 1037.00" xmlns="http://www.w3.org/2000/svg" xmlns:xlink="http://www.w3.org/1999/xlink">
<g id="graph0" class="graph" transform="scale(1.98306 1.98306) rotate(0) translate(36 487.15)">
<title>PRISMA</title>
<polygon fill="white" stroke="none" points="-36,36 -36,-487.15 2384.5,-487.15 2384.5,36 -36,36"/>
<!-- phase_id -->
<g id="node1" class="node">
<title>phase_id</title>
<text xml:space="preserve" text-anchor="middle" x="213.97" y="-9.85" font-family="Arial Bold" font-size="22.00" fill="#0b3c5d">Identification</text>
</g>
<!-- phase_sc -->
<g id="node2" class="node">
<title>phase_sc</title>
<text xml:space="preserve" text-anchor="middle" x="669.55" y="-9.85" font-family="Arial Bold" font-size="22.00" fill="#0b3c5d">Screening</text>
</g>
<!-- phase_id&#45;&gt;phase_sc -->
<!-- phase_el -->
<g id="node3" class="node">
<title>phase_el</title>
<text xml:space="preserve" text-anchor="middle" x="1041.75" y="-9.85" font-family="Arial Bold" font-size="22.00" fill="#0b3c5d">Eligibility</text>
</g>
<!-- phase_sc&#45;&gt;phase_el -->
<!-- phase_in -->
<g id="node4" class="node">
<title>phase_in</title>
<text xml:space="preserve" text-anchor="middle" x="1421.82" y="-9.85" font-family="Arial Bold" font-size="22.00" fill="#0b3c5d">Included</text>
</g>
<!-- phase_el&#45;&gt;phase_in -->
<!-- db_search -->
<g id="node5" class="node">
<title>db_search</title>
<path fill="#ffffff" stroke="#0b3c5d" stroke-width="2.5" d="M415.95,-451.15C415.95,-451.15 12,-451.15 12,-451.15 6,-451.15 0,-445.15 0,-439.15 0,-439.15 0,-252.85 0,-252.85 0,-246.85 6,-240.85 12,-240.85 12,-240.85 415.95,-240.85 415.95,-240.85 421.95,-240.85 427.95,-246.85 427.95,-252.85 427.95,-252.85 427.95,-439.15 427.95,-439.15 427.95,-445.15 421.95,-451.15 415.95,-451.15"/>
<text xml:space="preserve" text-anchor="middle" x="213.97" y="-417.75" font-family="Arial" font-size="20.00" fill="#0b3c5d">Records identified through</text>
<text xml:space="preserve" text-anchor="middle" x="213.97" y="-394.5" font-family="Arial" font-size="20.00" fill="#0b3c5d">database searching</text>
<text xml:space="preserve" text-anchor="middle" x="213.97" y="-371.25" font-family="Arial" font-size="20.00" fill="#0b3c5d">━━━━━━━━━━━━━━━━━━━</text>
<text xml:space="preserve" text-anchor="middle" x="213.97" y="-350.25" font-family="Arial" font-size="20.00" fill="#0b3c5d">Semantic Scholar (n = 642ˢ)</text>
<text xml:space="preserve" text-anchor="middle" x="213.97" y="-327" font-family="Arial" font-size="20.00" fill="#0b3c5d">OpenAlex (n = 438ˢ)</text>
<text xml:space="preserve" text-anchor="middle" x="213.97" y="-303.75" font-family="Arial" font-size="20.00" fill="#0b3c5d">CrossRef (n = 167ˢ)</text>
<text xml:space="preserve" text-anchor="middle" x="213.97" y="-280.5" font-family="Arial" font-size="20.00" fill="#0b3c5d">━━━━━━━━━━━━━━━━━━━</text>
<text xml:space="preserve" text-anchor="middle" x="213.97" y="-259.5" font-family="Arial" font-size="20.00" fill="#0b3c5d">Total (n = 1,247ˢ)</text>
</g>
<!-- duplicates -->
<g id="node6" class="node">
<title>duplicates</title>
<path fill="#fff0f0" stroke="#e74c3c" stroke-width="2.5" d="M311.7,-162.65C311.7,-162.65 116.25,-162.65 116.25,-162.65 110.25,-162.65 104.25,-156.65 104.25,-150.65 104.25,-150.65 104.25,-99.35 104.25,-99.35 104.25,-93.35 110.25,-87.35 116.25,-87.35 116.25,-87.35 311.7,-87.35 311.7,-87.35 317.7,-87.35 323.7,-93.35 323.7,-99.35 323.7,-99.35 323.7,-150.65 323.7,-150.65 323.7,-156.65 317.7,-162.65 311.7,-162.65"/>
<text xml:space="preserve" text-anchor="middle" x="213.97" y="-129.25" font-family="Arial" font-size="20.00" fill="#e74c3c">Duplicates removed</text>
<text xml:space="preserve" text-anchor="middle" x="213.97" y="-106" font-family="Arial" font-size="20.00" fill="#e74c3c">(n = 312ˢ)</text>
</g>
<!-- db_search&#45;&gt;duplicates -->
<g id="edge6" class="edge">
<title>db_search&#45;&gt;duplicates</title>
<path fill="none" stroke="#0b3c5d" stroke-width="2.5" d="M213.97,-239.63C213.97,-218.91 213.97,-198.18 213.97,-177.46"/>
<polygon fill="#0b3c5d" stroke="#0b3c5d" stroke-width="2.5" points="217.48,-177.63 213.98,-167.63 210.48,-177.63 217.48,-177.63"/>
</g>
<!-- screened -->
<g id="node7" class="node">
<title>screened</title>
<path fill="#ffffff" stroke="#0b3c5d" stroke-width="2.5" d="M760.15,-383.65C760.15,-383.65 578.95,-383.65 578.95,-383.65 572.95,-383.65 566.95,-377.65 566.95,-371.65 566.95,-371.65 566.95,-320.35 566.95,-320.35 566.95,-314.35 572.95,-308.35 578.95,-308.35 578.95,-308.35 760.15,-308.35 760.15,-308.35 766.15,-308.35 772.15,-314.35 772.15,-320.35 772.15,-320.35 772.15,-371.65 772.15,-371.65 772.15,-377.65 766.15,-383.65 760.15,-383.65"/>
<text xml:space="preserve" text-anchor="middle" x="669.55" y="-350.25" font-family="Arial" font-size="20.00" fill="#0b3c5d">Records screened</text>
<text xml:space="preserve" text-anchor="middle" x="669.55" y="-327" font-family="Arial" font-size="20.00" fill="#0b3c5d">(n = 935ˢ)</text>
</g>
<!-- db_search&#45;&gt;screened -->
<g id="edge1" class="edge">
<title>db_search&#45;&gt;screened</title>
<path fill="none" stroke="#0b3c5d" stroke-width="2.5" d="M429.14,-346C471.53,-346 514.51,-346 552.13,-346"/>
<polygon fill="#0b3c5d" stroke="#0b3c5d" stroke-width="2.5" points="551.96,-349.5 561.96,-346 551.96,-342.5 551.96,-349.5"/>
<text xml:space="preserve" text-anchor="middle" x="497.45" y="-365.7" font-family="Times,serif" font-size="14.00"> &#160;After</text>
<text xml:space="preserve" text-anchor="middle" x="497.45" y="-349.2" font-family="Times,serif" font-size="14.00"> &#160;deduplication</text>
</g>
<!-- excl_screen -->
<g id="node8" class="node">
<title>excl_screen</title>
<path fill="#fff0f0" stroke="#e74c3c" stroke-width="2.5" d="M733.52,-207.28C733.52,-207.28 605.57,-207.28 605.57,-207.28 599.57,-207.28 593.57,-201.28 593.57,-195.28 593.57,-195.28 593.57,-120.72 593.57,-120.72 593.57,-114.72 599.57,-108.72 605.57,-108.72 605.57,-108.72 733.52,-108.72 733.52,-108.72 739.52,-108.72 745.52,-114.72 745.52,-120.72 745.52,-120.72 745.52,-195.28 745.52,-195.28 745.52,-201.28 739.52,-207.28 733.52,-207.28"/>
<text xml:space="preserve" text-anchor="middle" x="669.55" y="-173.88" font-family="Arial" font-size="20.00" fill="#e74c3c">Excluded by</text>
<text xml:space="preserve" text-anchor="middle" x="669.55" y="-150.62" font-family="Arial" font-size="20.00" fill="#e74c3c">title/abstract</text>
<text xml:space="preserve" text-anchor="middle" x="669.55" y="-127.38" font-family="Arial" font-size="20.00" fill="#e74c3c">(n = 808ˢ)</text>
</g>
<!-- screened&#45;&gt;excl_screen -->
<g id="edge7" class="edge">
<title>screened&#45;&gt;excl_screen</title>
<path fill="none" stroke="#0b3c5d" stroke-width="2.5" d="M669.55,-307.27C669.55,-278.79 669.55,-250.31 669.55,-221.84"/>
<polygon fill="#0b3c5d" stroke="#0b3c5d" stroke-width="2.5" points="673.05,-222.09 669.55,-212.09 666.05,-222.09 673.05,-222.09"/>
</g>
<!-- fulltext -->
<g id="node9" class="node">
<title>fulltext</title>
<path fill="#ffffff" stroke="#0b3c5d" stroke-width="2.5" d="M1148.1,-395.27C1148.1,-395.27 935.4,-395.27 935.4,-395.27 929.4,-395.27 923.4,-389.27 923.4,-383.27 923.4,-383.27 923.4,-308.73 923.4,-308.73 923.4,-302.73 929.4,-296.73 935.4,-296.73 935.4,-296.73 1148.1,-296.73 1148.1,-296.73 1154.1,-296.73 1160.1,-302.73 1160.1,-308.73 1160.1,-308.73 1160.1,-383.27 1160.1,-383.27 1160.1,-389.27 1154.1,-395.27 1148.1,-395.27"/>
<text xml:space="preserve" text-anchor="middle" x="1041.75" y="-361.88" font-family="Arial" font-size="20.00" fill="#0b3c5d">Full&#45;text articles</text>
<text xml:space="preserve" text-anchor="middle" x="1041.75" y="-338.62" font-family="Arial" font-size="20.00" fill="#0b3c5d">assessed for eligibility</text>
<text xml:space="preserve" text-anchor="middle" x="1041.75" y="-315.38" font-family="Arial" font-size="20.00" fill="#0b3c5d">(n = 127ˢ)</text>
</g>
<!-- screened&#45;&gt;fulltext -->
<g id="edge2" class="edge">
<title>screened&#45;&gt;fulltext</title>
<path fill="none" stroke="#0b3c5d" stroke-width="2.5" d="M773.18,-346C815.07,-346 864.04,-346 908.55,-346"/>
<polygon fill="#0b3c5d" stroke="#0b3c5d" stroke-width="2.5" points="908.42,-349.5 918.42,-346 908.42,-342.5 908.42,-349.5"/>
</g>
<!-- excl_fulltext -->
<g id="node10" class="node">
<title>excl_fulltext</title>
<path fill="#fff0f0" stroke="#e74c3c" stroke-width="2.5" d="M1240.35,-238.78C1240.35,-238.78 843.15,-238.78 843.15,-238.78 837.15,-238.78 831.15,-232.78 831.15,-226.78 831.15,-226.78 831.15,-77.22 831.15,-77.22 831.15,-71.22 837.15,-65.22 843.15,-65.22 843.15,-65.22 1240.35,-65.22 1240.35,-65.22 1246.35,-65.22 1252.35,-71.22 1252.35,-77.22 1252.35,-77.22 1252.35,-226.78 1252.35,-226.78 1252.35,-232.78 1246.35,-238.78 1240.35,-238.78"/>
<text xml:space="preserve" text-anchor="middle" x="1041.75" y="-207.28" font-family="Arial" font-size="18.00" fill="#e74c3c">Full&#45;text articles excluded,</text>
<text xml:space="preserve" text-anchor="middle" x="1041.75" y="-186.28" font-family="Arial" font-size="18.00" fill="#e74c3c">with reasons (n = 89ˢ)</text>
<text xml:space="preserve" text-anchor="middle" x="1041.75" y="-165.28" font-family="Arial" font-size="18.00" fill="#e74c3c">━━━━━━━━━━━━━━━━━━━━━</text>
<text xml:space="preserve" text-anchor="middle" x="1041.75" y="-146.53" font-family="Arial" font-size="18.00" fill="#e74c3c">No quantitative rate (n = 34ˢ)</text>
<text xml:space="preserve" text-anchor="middle" x="1041.75" y="-125.53" font-family="Arial" font-size="18.00" fill="#e74c3c">Mitigation&#45;only, no baseline (n = 22ˢ)</text>
<text xml:space="preserve" text-anchor="middle" x="1041.75" y="-104.53" font-family="Arial" font-size="18.00" fill="#e74c3c">Non&#45;English (n = 18ˢ)</text>
<text xml:space="preserve" text-anchor="middle" x="1041.75" y="-83.53" font-family="Arial" font-size="18.00" fill="#e74c3c">Below citation threshold (n = 15ˢ)</text>
</g>
<!-- fulltext&#45;&gt;excl_fulltext -->
<g id="edge8" class="edge">
<title>fulltext&#45;&gt;excl_fulltext</title>
<path fill="none" stroke="#0b3c5d" stroke-width="2.5" d="M1041.75,-295.85C1041.75,-281.72 1041.75,-267.59 1041.75,-253.46"/>
<polygon fill="#0b3c5d" stroke="#0b3c5d" stroke-width="2.5" points="1045.25,-253.69 1041.75,-243.69 1038.25,-253.69 1045.25,-253.69"/>
</g>
<!-- qual_synth -->
<g id="node11" class="node">
<title>qual_synth</title>
<path fill="#f0fff0" stroke="#0f9d8a" stroke-width="2.5" d="M1520.3,-395.27C1520.3,-395.27 1323.35,-395.27 1323.35,-395.27 1317.35,-395.27 1311.35,-389.27 1311.35,-383.27 1311.35,-383.27 1311.35,-308.73 1311.35,-308.73 1311.35,-302.73 1317.35,-296.73 1323.35,-296.73 1323.35,-296.73 1520.3,-296.73 1520.3,-296.73 1526.3,-296.73 1532.3,-302.73 1532.3,-308.73 1532.3,-308.73 1532.3,-383.27 1532.3,-383.27 1532.3,-389.27 1526.3,-395.27 1520.3,-395.27"/>
<text xml:space="preserve" text-anchor="middle" x="1421.82" y="-361.88" font-family="Arial" font-size="20.00" fill="#0f9d8a">Studies included in</text>
<text xml:space="preserve" text-anchor="middle" x="1421.82" y="-338.62" font-family="Arial" font-size="20.00" fill="#0f9d8a">qualitative synthesis</text>
<text xml:space="preserve" text-anchor="middle" x="1421.82" y="-315.38" font-family="Arial" font-size="20.00" fill="#0f9d8a">(n = 42ˢ)</text>
</g>
<!-- fulltext&#45;&gt;qual_synth -->
<g id="edge3" class="edge">
<title>fulltext&#45;&gt;qual_synth</title>
<path fill="none" stroke="#0b3c5d" stroke-width="2.5" d="M1161.34,-346C1204.42,-346 1253.2,-346 1296.75,-346"/>
<polygon fill="#0b3c5d" stroke="#0b3c5d" stroke-width="2.5" points="1296.6,-349.5 1306.6,-346 1296.6,-342.5 1296.6,-349.5"/>
</g>
<!-- quant_synth -->
<g id="node12" class="node">
<title>quant_synth</title>
<path fill="#f0fff0" stroke="#0f9d8a" stroke-width="4" d="M1828,-391.9C1828,-391.9 1603.3,-391.9 1603.3,-391.9 1597.3,-391.9 1591.3,-385.9 1591.3,-379.9 1591.3,-379.9 1591.3,-312.1 1591.3,-312.1 1591.3,-306.1 1597.3,-300.1 1603.3,-300.1 1603.3,-300.1 1828,-300.1 1828,-300.1 1834,-300.1 1840,-306.1 1840,-312.1 1840,-312.1 1840,-379.9 1840,-379.9 1840,-385.9 1834,-391.9 1828,-391.9"/>
<text xml:space="preserve" text-anchor="middle" x="1715.65" y="-360.4" font-family="Arial" font-size="18.00" fill="#0f9d8a">Studies included in</text>
<text xml:space="preserve" text-anchor="middle" x="1715.65" y="-339.4" font-family="Arial" font-size="18.00" fill="#0f9d8a">quantitative meta&#45;analysis</text>
<text xml:space="preserve" text-anchor="middle" x="1715.65" y="-318.4" font-family="Arial" font-size="18.00" fill="#0f9d8a">(n = 38)</text>
</g>
<!-- qual_synth&#45;&gt;quant_synth -->
<g id="edge4" class="edge">
<title>qual_synth&#45;&gt;quant_synth</title>
<path fill="none" stroke="#0b3c5d" stroke-width="2.5" d="M1533.15,-346C1547.1,-346 1561.5,-346 1575.82,-346"/>
<polygon fill="#0b3c5d" stroke="#0b3c5d" stroke-width="2.5" points="1575.71,-349.5 1585.71,-346 1575.71,-342.5 1575.71,-349.5"/>
</g>
<!-- note -->
<g id="node13" class="node">
<title>note</title>
<text xml:space="preserve" text-anchor="middle" x="2123.75" y="-340.18" font-family="Arial" font-size="16.00" fill="#666666">Note: Values marked ˢ are simulated. n = number of records.</text>
</g>
<!-- quant_synth&#45;&gt;note -->
</g>
</svg>
