<?xml version="1.0" encoding="UTF-8" standalone="no"?>
<!DOCTYPE svg PUBLIC "-//W3C//DTD SVG 1.1//EN"
 "http://www.w3.org/Graphics/SVG/1.1/DTD/svg11.dtd">
<!-- Generated by graphviz version 14.1.4 (20260321.0153)
 -->
<!-- Title: PRISMA Pages: 1 -->
<svg width="3000pt" height="3205pt"
 viewBox="0.00 0.00 3000.00 3205.00" xmlns="http://www.w3.org/2000/svg" xmlns:xlink="http://www.w3.org/1999/xlink">
<g id="graph0" class="graph" transform="scale(3.17511 3.17511) rotate(0) translate(36 973.5)">
<title>PRISMA</title>
<polygon fill="white" stroke="none" points="-36,36 -36,-973.5 908.85,-973.5 908.85,36 -36,36"/>
<!-- phase_id -->
<g id="node1" class="node">
<title>phase_id</title>
<text xml:space="preserve" text-anchor="middle" x="64.62" y="-843.75" font-family="Arial Bold" font-size="18.00" fill="#0b3c5d">Identification</text>
</g>
<!-- phase_sc -->
<g id="node2" class="node">
<title>phase_sc</title>
<text xml:space="preserve" text-anchor="middle" x="64.62" y="-623.07" font-family="Arial Bold" font-size="18.00" fill="#0b3c5d">Screening</text>
</g>
<!-- phase_id&#45;&gt;phase_sc -->
<!-- phase_el -->
<g id="node3" class="node">
<title>phase_el</title>
<text xml:space="preserve" text-anchor="middle" x="64.62" y="-452.4" font-family="Arial Bold" font-size="18.00" fill="#0b3c5d">Eligibility</text>
</g>
<!-- phase_sc&#45;&gt;phase_el -->
<!-- phase_in -->
<g id="node4" class="node">
<title>phase_in</title>
<text xml:space="preserve" text-anchor="middle" x="64.62" y="-281.73" font-family="Arial Bold" font-size="18.00" fill="#0b3c5d">Included</text>
</g>
<!-- phase_el&#45;&gt;phase_in -->
<!-- db_search -->
<g id="node5" class="node">
<title>db_search</title>
<path fill="#ffffff" stroke="#0b3c5d" stroke-width="2.5" d="M502.85,-937.5C502.85,-937.5 184.4,-937.5 184.4,-937.5 178.4,-937.5 172.4,-931.5 172.4,-925.5 172.4,-925.5 172.4,-775.2 172.4,-775.2 172.4,-769.2 178.4,-763.2 184.4,-763.2 184.4,-763.2 502.85,-763.2 502.85,-763.2 508.85,-763.2 514.85,-769.2 514.85,-775.2 514.85,-775.2 514.85,-925.5 514.85,-925.5 514.85,-931.5 508.85,-937.5 502.85,-937.5"/>
<text xml:space="preserve" text-anchor="middle" x="343.62" y="-907.9" font-family="Arial" font-size="16.00" fill="#0b3c5d">Records identified through</text>
<text xml:space="preserve" text-anchor="middle" x="343.62" y="-889.15" font-family="Arial" font-size="16.00" fill="#0b3c5d">database searching</text>
<text xml:space="preserve" text-anchor="middle" x="343.62" y="-870.4" font-family="Arial" font-size="16.00" fill="#0b3c5d">━━━━━━━━━━━━━━━━━━━</text>
<text xml:space="preserve" text-anchor="middle" x="343.62" y="-853.9" font-family="Arial" font-size="16.00" fill="#0b3c5d">Semantic Scholar (n = 642ˢ)</text>
<text xml:space="preserve" text-anchor="middle" x="343.62" y="-835.15" font-family="Arial" font-size="16.00" fill="#0b3c5d">OpenAlex (n = 438ˢ)</text>
<text xml:space="preserve" text-anchor="middle" x="343.62" y="-816.4" font-family="Arial" font-size="16.00" fill="#0b3c5d">CrossRef (n = 167ˢ)</text>
<text xml:space="preserve" text-anchor="middle" x="343.62" y="-797.65" font-family="Arial" font-size="16.00" fill="#0b3c5d">━━━━━━━━━━━━━━━━━━━</text>
<text xml:space="preserve" text-anchor="middle" x="343.62" y="-781.15" font-family="Arial" font-size="16.00" fill="#0b3c5d">Total (n = 1,247ˢ)</text>
</g>
<!-- duplicates -->
<g id="node6" class="node">
<title>duplicates</title>
<path fill="#fff0f0" stroke="#e74c3c" stroke-width="2.5" d="M774.85,-883.5C774.85,-883.5 612.4,-883.5 612.4,-883.5 606.4,-883.5 600.4,-877.5 600.4,-871.5 600.4,-871.5 600.4,-829.2 600.4,-829.2 600.4,-823.2 606.4,-817.2 612.4,-817.2 612.4,-817.2 774.85,-817.2 774.85,-817.2 780.85,-817.2 786.85,-823.2 786.85,-829.2 786.85,-829.2 786.85,-871.5 786.85,-871.5 786.85,-877.5 780.85,-883.5 774.85,-883.5"/>
<text xml:space="preserve" text-anchor="middle" x="693.62" y="-853.9" font-family="Arial" font-size="16.00" fill="#e74c3c">Duplicates removed</text>
<text xml:space="preserve" text-anchor="middle" x="693.62" y="-835.15" font-family="Arial" font-size="16.00" fill="#e74c3c">(n = 312ˢ)</text>
</g>
<!-- db_search&#45;&gt;duplicates -->
<g id="edge6" class="edge">
<title>db_search&#45;&gt;duplicates</title>
<path fill="none" stroke="#0b3c5d" stroke-width="2.5" d="M515.89,-850.35C539.11,-850.35 562.32,-850.35 585.54,-850.35"/>
<polygon fill="#0b3c5d" stroke="#0b3c5d" stroke-width="2.5" points="585.42,-853.85 595.42,-850.35 585.42,-846.85 585.42,-853.85"/>
</g>
<!-- screened -->
<g id="node7" class="node">
<title>screened</title>
<path fill="#ffffff" stroke="#0b3c5d" stroke-width="2.5" d="M418.85,-662.82C418.85,-662.82 268.4,-662.82 268.4,-662.82 262.4,-662.82 256.4,-656.82 256.4,-650.82 256.4,-650.82 256.4,-608.52 256.4,-608.52 256.4,-602.52 262.4,-596.52 268.4,-596.52 268.4,-596.52 418.85,-596.52 418.85,-596.52 424.85,-596.52 430.85,-602.52 430.85,-608.52 430.85,-608.52 430.85,-650.82 430.85,-650.82 430.85,-656.82 424.85,-662.82 418.85,-662.82"/>
<text xml:space="preserve" text-anchor="middle" x="343.62" y="-633.22" font-family="Arial" font-size="16.00" fill="#0b3c5d">Records screened</text>
<text xml:space="preserve" text-anchor="middle" x="343.62" y="-614.47" font-family="Arial" font-size="16.00" fill="#0b3c5d">(n = 935ˢ)</text>
</g>
<!-- db_search&#45;&gt;screened -->
<g id="edge1" class="edge">
<title>db_search&#45;&gt;screened</title>
<path fill="none" stroke="#0b3c5d" stroke-width="2.5" d="M343.62,-761.98C343.62,-733.14 343.62,-702.18 343.62,-677.56"/>
<polygon fill="#0b3c5d" stroke="#0b3c5d" stroke-width="2.5" points="347.13,-677.65 343.63,-667.65 340.13,-677.65 347.13,-677.65"/>
<text xml:space="preserve" text-anchor="middle" x="384.12" y="-720.9" font-family="Times,serif" font-size="14.00"> &#160;After</text>
<text xml:space="preserve" text-anchor="middle" x="384.12" y="-704.4" font-family="Times,serif" font-size="14.00"> &#160;deduplication</text>
</g>
<!-- excl_screen -->
<g id="node8" class="node">
<title>excl_screen</title>
<path fill="#fff0f0" stroke="#e74c3c" stroke-width="2.5" d="M636.48,-672.2C636.48,-672.2 528.77,-672.2 528.77,-672.2 522.77,-672.2 516.77,-666.2 516.77,-660.2 516.77,-660.2 516.77,-599.15 516.77,-599.15 516.77,-593.15 522.77,-587.15 528.77,-587.15 528.77,-587.15 636.48,-587.15 636.48,-587.15 642.48,-587.15 648.48,-593.15 648.48,-599.15 648.48,-599.15 648.48,-660.2 648.48,-660.2 648.48,-666.2 642.48,-672.2 636.48,-672.2"/>
<text xml:space="preserve" text-anchor="middle" x="582.62" y="-642.6" font-family="Arial" font-size="16.00" fill="#e74c3c">Excluded by</text>
<text xml:space="preserve" text-anchor="middle" x="582.62" y="-623.85" font-family="Arial" font-size="16.00" fill="#e74c3c">title/abstract</text>
<text xml:space="preserve" text-anchor="middle" x="582.62" y="-605.1" font-family="Arial" font-size="16.00" fill="#e74c3c">(n = 808ˢ)</text>
</g>
<!-- screened&#45;&gt;excl_screen -->
<g id="edge7" class="edge">
<title>screened&#45;&gt;excl_screen</title>
<path fill="none" stroke="#0b3c5d" stroke-width="2.5" d="M431.85,-629.67C455.24,-629.67 478.62,-629.67 502.01,-629.67"/>
<polygon fill="#0b3c5d" stroke="#0b3c5d" stroke-width="2.5" points="501.99,-633.18 511.99,-629.68 501.99,-626.18 501.99,-633.18"/>
</g>
<!-- fulltext -->
<g id="node9" class="node">
<title>fulltext</title>
<path fill="#ffffff" stroke="#0b3c5d" stroke-width="2.5" d="M432.73,-501.52C432.73,-501.52 254.53,-501.52 254.53,-501.52 248.53,-501.52 242.53,-495.52 242.53,-489.52 242.53,-489.52 242.53,-428.48 242.53,-428.48 242.53,-422.48 248.53,-416.48 254.53,-416.48 254.53,-416.48 432.73,-416.48 432.73,-416.48 438.73,-416.48 444.73,-422.48 444.73,-428.48 444.73,-428.48 444.73,-489.52 444.73,-489.52 444.73,-495.52 438.73,-501.52 432.73,-501.52"/>
<text xml:space="preserve" text-anchor="middle" x="343.62" y="-471.93" font-family="Arial" font-size="16.00" fill="#0b3c5d">Full&#45;text articles</text>
<text xml:space="preserve" text-anchor="middle" x="343.62" y="-453.18" font-family="Arial" font-size="16.00" fill="#0b3c5d">assessed for eligibility</text>
<text xml:space="preserve" text-anchor="middle" x="343.62" y="-434.43" font-family="Arial" font-size="16.00" fill="#0b3c5d">(n = 127ˢ)</text>
</g>
<!-- screened&#45;&gt;fulltext -->
<g id="edge2" class="edge">
<title>screened&#45;&gt;fulltext</title>
<path fill="none" stroke="#0b3c5d" stroke-width="2.5" d="M343.62,-595.35C343.62,-572.81 343.62,-542.47 343.62,-516.24"/>
<polygon fill="#0b3c5d" stroke="#0b3c5d" stroke-width="2.5" points="347.13,-516.34 343.63,-506.34 340.13,-516.34 347.13,-516.34"/>
</g>
<!-- excl_fulltext -->
<g id="node10" class="node">
<title>excl_fulltext</title>
<path fill="#fff0f0" stroke="#e74c3c" stroke-width="2.5" d="M860.85,-528.15C860.85,-528.15 542.4,-528.15 542.4,-528.15 536.4,-528.15 530.4,-522.15 530.4,-516.15 530.4,-516.15 530.4,-401.85 530.4,-401.85 530.4,-395.85 536.4,-389.85 542.4,-389.85 542.4,-389.85 860.85,-389.85 860.85,-389.85 866.85,-389.85 872.85,-395.85 872.85,-401.85 872.85,-401.85 872.85,-516.15 872.85,-516.15 872.85,-522.15 866.85,-528.15 860.85,-528.15"/>
<text xml:space="preserve" text-anchor="middle" x="701.62" y="-500.45" font-family="Arial" font-size="14.00" fill="#e74c3c">Full&#45;text articles excluded,</text>
<text xml:space="preserve" text-anchor="middle" x="701.62" y="-484.7" font-family="Arial" font-size="14.00" fill="#e74c3c">with reasons (n = 89ˢ)</text>
<text xml:space="preserve" text-anchor="middle" x="701.62" y="-468.95" font-family="Arial" font-size="14.00" fill="#e74c3c">━━━━━━━━━━━━━━━━━━━━━</text>
<text xml:space="preserve" text-anchor="middle" x="701.62" y="-453.95" font-family="Arial" font-size="14.00" fill="#e74c3c">No quantitative rate (n = 34ˢ)</text>
<text xml:space="preserve" text-anchor="middle" x="701.62" y="-438.2" font-family="Arial" font-size="14.00" fill="#e74c3c">Mitigation&#45;only, no baseline (n = 22ˢ)</text>
<text xml:space="preserve" text-anchor="middle" x="701.62" y="-422.45" font-family="Arial" font-size="14.00" fill="#e74c3c">Non&#45;English (n = 18ˢ)</text>
<text xml:space="preserve" text-anchor="middle" x="701.62" y="-406.7" font-family="Arial" font-size="14.00" fill="#e74c3c">Below citation threshold (n = 15ˢ)</text>
</g>
<!-- fulltext&#45;&gt;excl_fulltext -->
<g id="edge8" class="edge">
<title>fulltext&#45;&gt;excl_fulltext</title>
<path fill="none" stroke="#0b3c5d" stroke-width="2.5" d="M445.71,-459C468.97,-459 492.23,-459 515.49,-459"/>
<polygon fill="#0b3c5d" stroke="#0b3c5d" stroke-width="2.5" points="515.4,-462.5 525.4,-459 515.4,-455.5 515.4,-462.5"/>
</g>
<!-- qual_synth -->
<g id="node11" class="node">
<title>qual_synth</title>
<path fill="#f0fff0" stroke="#0f9d8a" stroke-width="2.5" d="M426.35,-330.85C426.35,-330.85 260.9,-330.85 260.9,-330.85 254.9,-330.85 248.9,-324.85 248.9,-318.85 248.9,-318.85 248.9,-257.8 248.9,-257.8 248.9,-251.8 254.9,-245.8 260.9,-245.8 260.9,-245.8 426.35,-245.8 426.35,-245.8 432.35,-245.8 438.35,-251.8 438.35,-257.8 438.35,-257.8 438.35,-318.85 438.35,-318.85 438.35,-324.85 432.35,-330.85 426.35,-330.85"/>
<text xml:space="preserve" text-anchor="middle" x="343.62" y="-301.25" font-family="Arial" font-size="16.00" fill="#0f9d8a">Studies included in</text>
<text xml:space="preserve" text-anchor="middle" x="343.62" y="-282.5" font-family="Arial" font-size="16.00" fill="#0f9d8a">qualitative synthesis</text>
<text xml:space="preserve" text-anchor="middle" x="343.62" y="-263.75" font-family="Arial" font-size="16.00" fill="#0f9d8a">(n = 42ˢ)</text>
</g>
<!-- fulltext&#45;&gt;qual_synth -->
<g id="edge3" class="edge">
<title>fulltext&#45;&gt;qual_synth</title>
<path fill="none" stroke="#0b3c5d" stroke-width="2.5" d="M343.62,-415.44C343.62,-394.26 343.62,-368.39 343.62,-345.6"/>
<polygon fill="#0b3c5d" stroke="#0b3c5d" stroke-width="2.5" points="347.13,-345.66 343.63,-335.66 340.13,-345.66 347.13,-345.66"/>
</g>
<!-- quant_synth -->
<g id="node12" class="node">
<title>quant_synth</title>
<path fill="#f0fff0" stroke="#0f9d8a" stroke-width="4" d="M455.98,-186.8C455.98,-186.8 231.28,-186.8 231.28,-186.8 225.28,-186.8 219.28,-180.8 219.28,-174.8 219.28,-174.8 219.28,-107 219.28,-107 219.28,-101 225.28,-95 231.28,-95 231.28,-95 455.98,-95 455.98,-95 461.98,-95 467.98,-101 467.98,-107 467.98,-107 467.98,-174.8 467.98,-174.8 467.98,-180.8 461.98,-186.8 455.98,-186.8"/>
<text xml:space="preserve" text-anchor="middle" x="343.62" y="-155.3" font-family="Arial" font-size="18.00" fill="#0f9d8a">Studies included in</text>
<text xml:space="preserve" text-anchor="middle" x="343.62" y="-134.3" font-family="Arial" font-size="18.00" fill="#0f9d8a">quantitative meta&#45;analysis</text>
<text xml:space="preserve" text-anchor="middle" x="343.62" y="-113.3" font-family="Arial" font-size="18.00" fill="#0f9d8a">(n = 38)</text>
</g>
<!-- qual_synth&#45;&gt;quant_synth -->
<g id="edge4" class="edge">
<title>qual_synth&#45;&gt;quant_synth</title>
<path fill="none" stroke="#0b3c5d" stroke-width="2.5" d="M343.62,-244.87C343.62,-231.53 343.62,-216.53 343.62,-202.2"/>
<polygon fill="#0b3c5d" stroke="#0b3c5d" stroke-width="2.5" points="347.13,-202.52 343.63,-192.52 340.13,-202.52 347.13,-202.52"/>
</g>
<!-- note -->
<g id="node13" class="node">
<title>note</title>
<text xml:space="preserve" text-anchor="middle" x="343.62" y="-13.15" font-family="Arial" font-size="13.00" fill="#666666">Note: Values marked ˢ are simulated. n = number of records.</text>
</g>
<!-- quant_synth&#45;&gt;note -->
</g>
</svg>
